<svg id="Capa_1" data-name="Capa 1" xmlns="http://www.w3.org/2000/svg" xmlns:xlink="http://www.w3.org/1999/xlink" viewBox="0 0 29.24 29.24"><defs><style>.cls-1{fill:url(#linear-gradient);}.cls-2{fill:#fff;}</style><linearGradient id="linear-gradient" x1="40.95" y1="-226.11" x2="65.7" y2="-201.36" gradientTransform="translate(-198.42 -38.02) rotate(90)" gradientUnits="userSpaceOnUse"><stop offset="0" stop-color="#1677f1"/><stop offset="0.18" stop-color="#186ee9"/><stop offset="0.46" stop-color="#1d56d3"/><stop offset="0.82" stop-color="#262fb0"/><stop offset="1" stop-color="#2b189c"/></linearGradient></defs><path class="cls-1" d="M.7,22.28V8.33A7.67,7.67,0,0,1,8.35.68H22.29a7.67,7.67,0,0,1,7.65,7.65v14a7.67,7.67,0,0,1-7.65,7.64H17.61l-2.46-.59L13,29.92H8.35A7.67,7.67,0,0,1,.7,22.28Z" transform="translate(-0.7 -0.68)"/><path class="cls-2" d="M21,20l.65-4.23H17.61V13A2.11,2.11,0,0,1,20,10.76h1.84V7.16a22.08,22.08,0,0,0-3.27-.29c-3.34,0-5.52,2-5.52,5.69v3.22H9.32V20H13v9.91h4.57V20Z" transform="translate(-0.7 -0.68)"/></svg>