<svg id="Capa_1" data-name="Capa 1" xmlns="http://www.w3.org/2000/svg" viewBox="0 0 29.24 29.24"><defs><style>.cls-1{fill:#fff;}</style></defs><path class="cls-1" d="M.43,22.56V8.62A7.67,7.67,0,0,1,8.08,1H22a7.67,7.67,0,0,1,7.65,7.65V22.56A7.67,7.67,0,0,1,22,30.21H17.34l-2.46-.6-2.11.6H8.08A7.67,7.67,0,0,1,.43,22.56Z" transform="translate(-0.43 -0.97)"/><path d="M20.74,20.3l.65-4.23H17.34V13.33a2.11,2.11,0,0,1,2.38-2.28h1.84V7.45a22.08,22.08,0,0,0-3.27-.29c-3.34,0-5.52,2-5.52,5.69v3.22H9.05V20.3h3.72v9.91h4.57V20.3Z" transform="translate(-0.43 -0.97)"/></svg>