<svg id="Capa_1" data-name="Capa 1" xmlns="http://www.w3.org/2000/svg" xmlns:xlink="http://www.w3.org/1999/xlink" viewBox="0 0 29.24 29.24"><defs><style>.cls-1{fill:url(#Degradado_sin_nombre_3);}.cls-2{fill:#fff;}</style><linearGradient id="Degradado_sin_nombre_3" x1="69.54" y1="-217.57" x2="107.36" y2="-179.75" gradientTransform="translate(-67.8 219.06)" gradientUnits="userSpaceOnUse"><stop offset="0" stop-color="#ffe185"/><stop offset="0.21" stop-color="#ffbb36"/><stop offset="0.38" stop-color="#ff5176"/><stop offset="0.52" stop-color="#f63395"/><stop offset="0.74" stop-color="#a436d2"/><stop offset="1" stop-color="#5f4eed"/></linearGradient></defs><rect class="cls-1" x="2.05" y="1.79" width="29.24" height="29.24" rx="7.65" transform="translate(31.03 -2.05) rotate(90)"/><path class="cls-2" d="M21.21,10.9a1,1,0,1,0,1,1A1,1,0,0,0,21.21,10.9Z" transform="translate(-2.05 -1.79)"/><path class="cls-2" d="M16.74,12.19A4.22,4.22,0,1,0,21,16.41,4.22,4.22,0,0,0,16.74,12.19Zm0,6.93a2.71,2.71,0,1,1,2.7-2.71A2.72,2.72,0,0,1,16.74,19.12Z" transform="translate(-2.05 -1.79)"/><path class="cls-2" d="M20.09,25H13.25A5.15,5.15,0,0,1,8.1,19.84V13a5.16,5.16,0,0,1,5.15-5.15h6.84A5.16,5.16,0,0,1,25.24,13v6.85A5.15,5.15,0,0,1,20.09,25ZM13.25,9.45A3.55,3.55,0,0,0,9.71,13v6.85a3.54,3.54,0,0,0,3.54,3.53h6.84a3.54,3.54,0,0,0,3.54-3.53V13a3.55,3.55,0,0,0-3.54-3.54Z" transform="translate(-2.05 -1.79)"/></svg>