<svg id="Capa_1" data-name="Capa 1" xmlns="http://www.w3.org/2000/svg" viewBox="0 0 29.24 29.24"><defs><style>.cls-1{fill:#fff;}</style></defs><rect class="cls-1" x="1.05" y="0.79" width="29.24" height="29.24" rx="7.65" transform="translate(30.03 -1.05) rotate(90)"/><path d="M20.21,9.9a1,1,0,1,0,1,1A1,1,0,0,0,20.21,9.9Z" transform="translate(-1.05 -0.79)"/><path d="M15.74,11.19A4.22,4.22,0,1,0,20,15.41,4.22,4.22,0,0,0,15.74,11.19Zm0,6.93a2.71,2.71,0,1,1,2.7-2.71A2.72,2.72,0,0,1,15.74,18.12Z" transform="translate(-1.05 -0.79)"/><path d="M19.09,24H12.25A5.15,5.15,0,0,1,7.1,18.84V12a5.16,5.16,0,0,1,5.15-5.15h6.84A5.16,5.16,0,0,1,24.24,12v6.85A5.15,5.15,0,0,1,19.09,24ZM12.25,8.45A3.55,3.55,0,0,0,8.71,12v6.85a3.54,3.54,0,0,0,3.54,3.53h6.84a3.54,3.54,0,0,0,3.54-3.53V12a3.55,3.55,0,0,0-3.54-3.54Z" transform="translate(-1.05 -0.79)"/></svg>