<svg id="Capa_1" data-name="Capa 1" xmlns="http://www.w3.org/2000/svg" viewBox="0 0 29.24 29.24"><defs><style>.cls-1{fill:#fff;}.cls-2{fill-rule:evenodd;}</style></defs><rect class="cls-1" x="1.04" y="0.53" width="29.24" height="29.24" rx="7.65" transform="translate(29.78 -1.04) rotate(90)"/><path d="M7.76,23.43,9,18.88a8.4,8.4,0,1,1,3.36,3.33Zm4.8-2.93.29.17a6.78,6.78,0,1,0-2.34-2.31l.18.29L10,21.18Z" transform="translate(-1.04 -0.53)"/><path class="cls-2" d="M19.45,16a1.41,1.41,0,0,0-1.2-.27c-.31.13-.51.62-.71.87a.3.3,0,0,1-.39.08,5.48,5.48,0,0,1-2.72-2.33.33.33,0,0,1,0-.45,1.87,1.87,0,0,0,.5-.8,1.76,1.76,0,0,0-.23-.95,2.16,2.16,0,0,0-.7-1.06,1,1,0,0,0-1,.16,2.08,2.08,0,0,0-.73,1.67,2.33,2.33,0,0,0,.06.53,4.58,4.58,0,0,0,.51,1.18q.25.42.54.81a8.18,8.18,0,0,0,2.31,2.15,7,7,0,0,0,1.44.68,3.23,3.23,0,0,0,1.68.27,2,2,0,0,0,1.52-1.13,1.06,1.06,0,0,0,.07-.58C20.31,16.42,19.77,16.18,19.45,16Z" transform="translate(-1.04 -0.53)"/></svg>