<svg id="Capa_1" data-name="Capa 1" xmlns="http://www.w3.org/2000/svg" xmlns:xlink="http://www.w3.org/1999/xlink" viewBox="0 0 29.24 29.24"><defs><style>.cls-1{fill:url(#Degradado_sin_nombre_8);}.cls-2,.cls-3{fill:#fff;}.cls-3{fill-rule:evenodd;}</style><linearGradient id="Degradado_sin_nombre_8" x1="89.25" y1="-172.14" x2="114" y2="-147.39" gradientTransform="translate(-85.36 175.74)" gradientUnits="userSpaceOnUse"><stop offset="0" stop-color="#00fb73"/><stop offset="1" stop-color="#00b25b"/></linearGradient></defs><rect class="cls-1" x="1.65" y="1.36" width="29.24" height="29.24" rx="7.65" transform="translate(30.6 -1.65) rotate(90)"/><path class="cls-2" d="M8.37,24.25,9.59,19.7A8.39,8.39,0,1,1,16.94,24a8.48,8.48,0,0,1-4-1Zm4.8-2.93.29.17a6.82,6.82,0,1,0-2.34-2.31l.18.29L10.62,22Z" transform="translate(-1.65 -1.36)"/><path class="cls-3" d="M20.06,16.81a1.46,1.46,0,0,0-1.2-.27c-.32.13-.52.62-.72.87a.28.28,0,0,1-.38.08A5.35,5.35,0,0,1,15,15.16a.33.33,0,0,1,0-.45,1.85,1.85,0,0,0,.49-.8,1.67,1.67,0,0,0-.22-.95,2.27,2.27,0,0,0-.7-1.06,1,1,0,0,0-1,.16,2.12,2.12,0,0,0-.74,1.67,3.33,3.33,0,0,0,.07.54,4.33,4.33,0,0,0,.51,1.17,8.67,8.67,0,0,0,.53.81A8.06,8.06,0,0,0,16.3,18.4a6.33,6.33,0,0,0,1.44.68,3.1,3.1,0,0,0,1.67.27,2.06,2.06,0,0,0,1.53-1.13,1.05,1.05,0,0,0,.07-.58C20.92,17.24,20.38,17,20.06,16.81Z" transform="translate(-1.65 -1.36)"/></svg>